<mxfile host="app.diagrams.net" agent="Mozilla/5.0 (Windows NT 10.0; Win64; x64) AppleWebKit/537.36 (KHTML, like Gecko) Chrome/133.0.0.0 Safari/537.36" version="26.1.0" pages="2">
  <diagram name="Insect" id="niYWGcj-p5kKmHAeiwa_">
    <mxGraphModel dx="1851" dy="557" grid="1" gridSize="10" guides="1" tooltips="1" connect="1" arrows="1" fold="1" page="1" pageScale="1" pageWidth="827" pageHeight="1169" math="0" shadow="0">
      <root>
        <mxCell id="0" />
        <mxCell id="1" parent="0" />
        <mxCell id="MXzvI82z4HsUsvWfTn_s-1" value="Fast" style="rounded=1;whiteSpace=wrap;html=1;arcSize=40;fontColor=#000000;fillColor=#ffffc0;strokeColor=#ff0000;" vertex="1" parent="1">
          <mxGeometry x="-40" y="565" width="120" height="40" as="geometry" />
        </mxCell>
        <mxCell id="MXzvI82z4HsUsvWfTn_s-3" value="Normal" style="rounded=1;whiteSpace=wrap;html=1;arcSize=40;fontColor=#000000;fillColor=#ffffc0;strokeColor=#ff0000;" vertex="1" parent="1">
          <mxGeometry x="390" y="380" width="120" height="40" as="geometry" />
        </mxCell>
        <mxCell id="MXzvI82z4HsUsvWfTn_s-5" value="PreventCut" style="rounded=1;whiteSpace=wrap;html=1;arcSize=40;fontColor=#000000;fillColor=#ffffc0;strokeColor=#ff0000;" vertex="1" parent="1">
          <mxGeometry x="810" y="560" width="120" height="40" as="geometry" />
        </mxCell>
        <mxCell id="MXzvI82z4HsUsvWfTn_s-7" value="Slow" style="rounded=1;whiteSpace=wrap;html=1;arcSize=40;fontColor=#000000;fillColor=#ffffc0;strokeColor=#ff0000;" vertex="1" parent="1">
          <mxGeometry x="-40" y="1020" width="120" height="40" as="geometry" />
        </mxCell>
        <mxCell id="MXzvI82z4HsUsvWfTn_s-9" value="Stun" style="rounded=1;whiteSpace=wrap;html=1;arcSize=40;fontColor=#000000;fillColor=#ffffc0;strokeColor=#ff0000;" vertex="1" parent="1">
          <mxGeometry x="810" y="1020" width="120" height="40" as="geometry" />
        </mxCell>
        <mxCell id="MXzvI82z4HsUsvWfTn_s-34" value="" style="ellipse;html=1;shape=startState;fillColor=#000000;strokeColor=#ff0000;" vertex="1" parent="1">
          <mxGeometry x="435" y="270" width="30" height="30" as="geometry" />
        </mxCell>
        <mxCell id="MXzvI82z4HsUsvWfTn_s-35" value="" style="edgeStyle=orthogonalEdgeStyle;html=1;verticalAlign=bottom;endArrow=open;endSize=8;strokeColor=#ff0000;rounded=0;entryX=0.5;entryY=0;entryDx=0;entryDy=0;" edge="1" source="MXzvI82z4HsUsvWfTn_s-34" parent="1" target="MXzvI82z4HsUsvWfTn_s-3">
          <mxGeometry relative="1" as="geometry">
            <mxPoint x="414" y="450" as="targetPoint" />
          </mxGeometry>
        </mxCell>
        <mxCell id="MXzvI82z4HsUsvWfTn_s-42" value="" style="endArrow=classic;html=1;rounded=0;entryX=0;entryY=0.5;entryDx=0;entryDy=0;exitX=1;exitY=0.5;exitDx=0;exitDy=0;" edge="1" parent="1" source="MXzvI82z4HsUsvWfTn_s-7" target="MXzvI82z4HsUsvWfTn_s-9">
          <mxGeometry width="50" height="50" relative="1" as="geometry">
            <mxPoint x="240" y="880" as="sourcePoint" />
            <mxPoint x="290" y="830" as="targetPoint" />
          </mxGeometry>
        </mxCell>
        <mxCell id="MXzvI82z4HsUsvWfTn_s-54" value="" style="endArrow=classic;html=1;rounded=0;entryX=1;entryY=0.5;entryDx=0;entryDy=0;exitX=1;exitY=0.5;exitDx=0;exitDy=0;" edge="1" parent="1" source="MXzvI82z4HsUsvWfTn_s-3" target="MXzvI82z4HsUsvWfTn_s-9">
          <mxGeometry width="50" height="50" relative="1" as="geometry">
            <mxPoint x="474" y="390" as="sourcePoint" />
            <mxPoint x="500" y="470" as="targetPoint" />
            <Array as="points">
              <mxPoint x="1040" y="400" />
              <mxPoint x="1040" y="1040" />
            </Array>
          </mxGeometry>
        </mxCell>
        <mxCell id="MXzvI82z4HsUsvWfTn_s-55" value="" style="endArrow=classic;html=1;rounded=0;entryX=0;entryY=0.5;entryDx=0;entryDy=0;exitX=0;exitY=0.5;exitDx=0;exitDy=0;" edge="1" parent="1" source="MXzvI82z4HsUsvWfTn_s-3" target="MXzvI82z4HsUsvWfTn_s-7">
          <mxGeometry width="50" height="50" relative="1" as="geometry">
            <mxPoint x="320" y="760" as="sourcePoint" />
            <mxPoint x="370" y="710" as="targetPoint" />
            <Array as="points">
              <mxPoint x="-120" y="400" />
              <mxPoint x="-120" y="1040" />
            </Array>
          </mxGeometry>
        </mxCell>
        <mxCell id="MXzvI82z4HsUsvWfTn_s-56" value="" style="endArrow=classic;html=1;rounded=0;exitX=0.124;exitY=0.991;exitDx=0;exitDy=0;entryX=0.09;entryY=0.05;entryDx=0;entryDy=0;entryPerimeter=0;exitPerimeter=0;" edge="1" parent="1" source="MXzvI82z4HsUsvWfTn_s-7" target="MXzvI82z4HsUsvWfTn_s-3">
          <mxGeometry width="50" height="50" relative="1" as="geometry">
            <mxPoint x="-270" y="1060" as="sourcePoint" />
            <mxPoint x="-220" y="1010" as="targetPoint" />
            <Array as="points">
              <mxPoint x="-240" y="1060" />
              <mxPoint x="-240" y="382" />
            </Array>
          </mxGeometry>
        </mxCell>
        <mxCell id="MXzvI82z4HsUsvWfTn_s-57" value="" style="endArrow=classic;html=1;rounded=0;exitX=1;exitY=0.75;exitDx=0;exitDy=0;entryX=0.924;entryY=0.021;entryDx=0;entryDy=0;entryPerimeter=0;" edge="1" parent="1" source="MXzvI82z4HsUsvWfTn_s-9" target="MXzvI82z4HsUsvWfTn_s-3">
          <mxGeometry width="50" height="50" relative="1" as="geometry">
            <mxPoint x="860" y="1150" as="sourcePoint" />
            <mxPoint x="910" y="1100" as="targetPoint" />
            <Array as="points">
              <mxPoint x="1120" y="1050" />
              <mxPoint x="1120" y="381" />
            </Array>
          </mxGeometry>
        </mxCell>
        <mxCell id="MXzvI82z4HsUsvWfTn_s-58" value="" style="endArrow=classic;html=1;rounded=0;exitX=0;exitY=0.5;exitDx=0;exitDy=0;entryX=0.25;entryY=0;entryDx=0;entryDy=0;" edge="1" parent="1" source="MXzvI82z4HsUsvWfTn_s-1" target="MXzvI82z4HsUsvWfTn_s-1">
          <mxGeometry width="50" height="50" relative="1" as="geometry">
            <mxPoint x="-110" y="630" as="sourcePoint" />
            <mxPoint x="-30" y="480" as="targetPoint" />
            <Array as="points">
              <mxPoint x="-70" y="585" />
              <mxPoint x="-70" y="530" />
              <mxPoint x="-10" y="530" />
            </Array>
          </mxGeometry>
        </mxCell>
        <mxCell id="MXzvI82z4HsUsvWfTn_s-60" value="" style="endArrow=classic;html=1;rounded=0;exitX=0.75;exitY=1;exitDx=0;exitDy=0;" edge="1" parent="1" source="MXzvI82z4HsUsvWfTn_s-7">
          <mxGeometry width="50" height="50" relative="1" as="geometry">
            <mxPoint x="80" y="1090" as="sourcePoint" />
            <mxPoint x="-10" y="1060" as="targetPoint" />
            <Array as="points">
              <mxPoint x="50" y="1100" />
              <mxPoint x="-10" y="1100" />
            </Array>
          </mxGeometry>
        </mxCell>
        <mxCell id="MXzvI82z4HsUsvWfTn_s-61" value="" style="endArrow=classic;html=1;rounded=0;entryX=0.25;entryY=1;entryDx=0;entryDy=0;exitX=0.75;exitY=1;exitDx=0;exitDy=0;" edge="1" parent="1" source="MXzvI82z4HsUsvWfTn_s-9" target="MXzvI82z4HsUsvWfTn_s-9">
          <mxGeometry width="50" height="50" relative="1" as="geometry">
            <mxPoint x="90" y="1070" as="sourcePoint" />
            <mxPoint x="30" y="1070" as="targetPoint" />
            <Array as="points">
              <mxPoint x="900" y="1100" />
              <mxPoint x="840" y="1100" />
            </Array>
          </mxGeometry>
        </mxCell>
        <mxCell id="MXzvI82z4HsUsvWfTn_s-63" value="" style="endArrow=classic;html=1;rounded=0;exitX=1;exitY=0.5;exitDx=0;exitDy=0;entryX=0.75;entryY=0;entryDx=0;entryDy=0;" edge="1" parent="1" source="MXzvI82z4HsUsvWfTn_s-5" target="MXzvI82z4HsUsvWfTn_s-5">
          <mxGeometry width="50" height="50" relative="1" as="geometry">
            <mxPoint x="880" y="520" as="sourcePoint" />
            <mxPoint x="910" y="530" as="targetPoint" />
            <Array as="points">
              <mxPoint x="960" y="580" />
              <mxPoint x="960" y="530" />
              <mxPoint x="930" y="530" />
              <mxPoint x="900" y="530" />
            </Array>
          </mxGeometry>
        </mxCell>
        <mxCell id="MXzvI82z4HsUsvWfTn_s-64" value="" style="endArrow=classic;html=1;rounded=0;entryX=0.5;entryY=0;entryDx=0;entryDy=0;exitX=1;exitY=0.75;exitDx=0;exitDy=0;" edge="1" parent="1" source="MXzvI82z4HsUsvWfTn_s-1" target="MXzvI82z4HsUsvWfTn_s-9">
          <mxGeometry width="50" height="50" relative="1" as="geometry">
            <mxPoint x="250" y="770" as="sourcePoint" />
            <mxPoint x="300" y="720" as="targetPoint" />
          </mxGeometry>
        </mxCell>
        <mxCell id="MXzvI82z4HsUsvWfTn_s-65" value="" style="endArrow=classic;html=1;rounded=0;entryX=0.5;entryY=0;entryDx=0;entryDy=0;exitX=0;exitY=0.75;exitDx=0;exitDy=0;" edge="1" parent="1" source="MXzvI82z4HsUsvWfTn_s-5" target="MXzvI82z4HsUsvWfTn_s-7">
          <mxGeometry width="50" height="50" relative="1" as="geometry">
            <mxPoint x="650" y="710" as="sourcePoint" />
            <mxPoint x="700" y="660" as="targetPoint" />
          </mxGeometry>
        </mxCell>
        <mxCell id="MXzvI82z4HsUsvWfTn_s-66" value="" style="endArrow=classic;html=1;rounded=0;exitX=0.75;exitY=0;exitDx=0;exitDy=0;entryX=0.25;entryY=1;entryDx=0;entryDy=0;" edge="1" parent="1" source="MXzvI82z4HsUsvWfTn_s-7" target="MXzvI82z4HsUsvWfTn_s-5">
          <mxGeometry width="50" height="50" relative="1" as="geometry">
            <mxPoint x="330" y="1010" as="sourcePoint" />
            <mxPoint x="380" y="960" as="targetPoint" />
          </mxGeometry>
        </mxCell>
        <mxCell id="MXzvI82z4HsUsvWfTn_s-67" value="" style="endArrow=classic;html=1;rounded=0;exitX=1;exitY=0.25;exitDx=0;exitDy=0;entryX=0;entryY=0.25;entryDx=0;entryDy=0;" edge="1" parent="1" source="MXzvI82z4HsUsvWfTn_s-1" target="MXzvI82z4HsUsvWfTn_s-5">
          <mxGeometry width="50" height="50" relative="1" as="geometry">
            <mxPoint x="230" y="610" as="sourcePoint" />
            <mxPoint x="280" y="560" as="targetPoint" />
          </mxGeometry>
        </mxCell>
        <mxCell id="MXzvI82z4HsUsvWfTn_s-68" value="" style="endArrow=classic;html=1;rounded=0;entryX=1;entryY=0.5;entryDx=0;entryDy=0;exitX=0;exitY=0.5;exitDx=0;exitDy=0;" edge="1" parent="1" source="MXzvI82z4HsUsvWfTn_s-5" target="MXzvI82z4HsUsvWfTn_s-1">
          <mxGeometry width="50" height="50" relative="1" as="geometry">
            <mxPoint x="290" y="670" as="sourcePoint" />
            <mxPoint x="340" y="620" as="targetPoint" />
            <Array as="points">
              <mxPoint x="460" y="590" />
            </Array>
          </mxGeometry>
        </mxCell>
        <mxCell id="MXzvI82z4HsUsvWfTn_s-69" value="" style="endArrow=classic;html=1;rounded=0;exitX=1;exitY=0.75;exitDx=0;exitDy=0;entryX=0.5;entryY=0;entryDx=0;entryDy=0;" edge="1" parent="1" source="MXzvI82z4HsUsvWfTn_s-3" target="MXzvI82z4HsUsvWfTn_s-5">
          <mxGeometry width="50" height="50" relative="1" as="geometry">
            <mxPoint x="590" y="480" as="sourcePoint" />
            <mxPoint x="640" y="430" as="targetPoint" />
          </mxGeometry>
        </mxCell>
        <mxCell id="MXzvI82z4HsUsvWfTn_s-70" value="" style="endArrow=classic;html=1;rounded=0;entryX=0.75;entryY=1;entryDx=0;entryDy=0;exitX=0.25;exitY=0;exitDx=0;exitDy=0;" edge="1" parent="1" source="MXzvI82z4HsUsvWfTn_s-5" target="MXzvI82z4HsUsvWfTn_s-3">
          <mxGeometry width="50" height="50" relative="1" as="geometry">
            <mxPoint x="450" y="540" as="sourcePoint" />
            <mxPoint x="500" y="490" as="targetPoint" />
          </mxGeometry>
        </mxCell>
        <mxCell id="MXzvI82z4HsUsvWfTn_s-71" value="" style="endArrow=classic;html=1;rounded=0;entryX=0.25;entryY=1;entryDx=0;entryDy=0;exitX=0.75;exitY=0;exitDx=0;exitDy=0;" edge="1" parent="1" source="MXzvI82z4HsUsvWfTn_s-1" target="MXzvI82z4HsUsvWfTn_s-3">
          <mxGeometry width="50" height="50" relative="1" as="geometry">
            <mxPoint x="310" y="540" as="sourcePoint" />
            <mxPoint x="360" y="490" as="targetPoint" />
          </mxGeometry>
        </mxCell>
        <mxCell id="MXzvI82z4HsUsvWfTn_s-72" value="" style="endArrow=classic;html=1;rounded=0;exitX=0.5;exitY=1;exitDx=0;exitDy=0;entryX=0.5;entryY=0;entryDx=0;entryDy=0;" edge="1" parent="1" source="MXzvI82z4HsUsvWfTn_s-1" target="MXzvI82z4HsUsvWfTn_s-7">
          <mxGeometry width="50" height="50" relative="1" as="geometry">
            <mxPoint x="-10" y="740" as="sourcePoint" />
            <mxPoint x="40" y="690" as="targetPoint" />
          </mxGeometry>
        </mxCell>
        <mxCell id="MXzvI82z4HsUsvWfTn_s-73" value="" style="endArrow=classic;html=1;rounded=0;exitX=0.25;exitY=0;exitDx=0;exitDy=0;entryX=0.25;entryY=1;entryDx=0;entryDy=0;" edge="1" parent="1" source="MXzvI82z4HsUsvWfTn_s-7" target="MXzvI82z4HsUsvWfTn_s-1">
          <mxGeometry width="50" height="50" relative="1" as="geometry">
            <mxPoint x="-50" y="920" as="sourcePoint" />
            <mxPoint y="870" as="targetPoint" />
          </mxGeometry>
        </mxCell>
        <mxCell id="MXzvI82z4HsUsvWfTn_s-74" value="" style="endArrow=classic;html=1;rounded=0;entryX=0.5;entryY=0;entryDx=0;entryDy=0;exitX=0.5;exitY=1;exitDx=0;exitDy=0;" edge="1" parent="1" source="MXzvI82z4HsUsvWfTn_s-5" target="MXzvI82z4HsUsvWfTn_s-9">
          <mxGeometry width="50" height="50" relative="1" as="geometry">
            <mxPoint x="590" y="1180" as="sourcePoint" />
            <mxPoint x="640" y="1130" as="targetPoint" />
          </mxGeometry>
        </mxCell>
        <mxCell id="MXzvI82z4HsUsvWfTn_s-76" value="" style="endArrow=classic;html=1;rounded=0;entryX=0.5;entryY=0;entryDx=0;entryDy=0;exitX=0;exitY=0.75;exitDx=0;exitDy=0;" edge="1" parent="1" source="MXzvI82z4HsUsvWfTn_s-3" target="MXzvI82z4HsUsvWfTn_s-1">
          <mxGeometry width="50" height="50" relative="1" as="geometry">
            <mxPoint x="110" y="500" as="sourcePoint" />
            <mxPoint x="160" y="450" as="targetPoint" />
          </mxGeometry>
        </mxCell>
        <mxCell id="MXzvI82z4HsUsvWfTn_s-77" value="eatSpore [TurnStrategy is StunStrategy] / setStrategy(StunStrategy)" style="text;html=1;align=center;verticalAlign=middle;resizable=0;points=[];autosize=1;strokeColor=none;fillColor=none;" vertex="1" parent="1">
          <mxGeometry x="270" y="1050" width="380" height="30" as="geometry" />
        </mxCell>
        <mxCell id="ewpNhHJzc_Rk4l6OKXms-1" value="&lt;span style=&quot;color: rgb(0, 0, 0); font-family: Helvetica; font-size: 12px; font-style: normal; font-variant-ligatures: normal; font-variant-caps: normal; font-weight: 400; letter-spacing: normal; orphans: 2; text-align: center; text-indent: 0px; text-transform: none; widows: 2; word-spacing: 0px; -webkit-text-stroke-width: 0px; white-space: nowrap; background-color: rgb(251, 251, 251); text-decoration-thickness: initial; text-decoration-style: initial; text-decoration-color: initial; float: none; display: inline !important;&quot;&gt;[effectTimer = 0]&amp;nbsp; / setStrategy(NormalStrategy)&lt;/span&gt;" style="text;whiteSpace=wrap;html=1;rotation=0;" vertex="1" parent="1">
          <mxGeometry x="-400" y="720" width="390" height="40" as="geometry" />
        </mxCell>
        <mxCell id="5DLsjGMNeFxkmOBRsVgO-5" value="Slow" style="swimlane;fontStyle=1;align=center;verticalAlign=middle;childLayout=stackLayout;horizontal=1;startSize=30;horizontalStack=0;resizeParent=0;resizeLast=1;container=0;fontColor=#000000;collapsible=0;rounded=1;arcSize=30;strokeColor=#ff0000;fillColor=#ffffc0;swimlaneFillColor=#ffffc0;dropTarget=0;" vertex="1" parent="1">
          <mxGeometry x="413" y="1240" width="160" height="110" as="geometry" />
        </mxCell>
        <mxCell id="5DLsjGMNeFxkmOBRsVgO-6" value="canCut=true&lt;div&gt;effect timer=3&lt;/div&gt;&lt;div&gt;remainingMoves=1&lt;/div&gt;" style="text;html=1;strokeColor=none;fillColor=none;align=center;verticalAlign=middle;spacingLeft=4;spacingRight=4;whiteSpace=wrap;overflow=hidden;rotatable=0;fontColor=#000000;" vertex="1" parent="5DLsjGMNeFxkmOBRsVgO-5">
          <mxGeometry y="30" width="160" height="80" as="geometry" />
        </mxCell>
        <mxCell id="5DLsjGMNeFxkmOBRsVgO-9" value="" style="edgeStyle=orthogonalEdgeStyle;html=1;verticalAlign=bottom;endArrow=open;endSize=8;strokeColor=#ff0000;rounded=0;entryX=0.5;entryY=0;entryDx=0;entryDy=0;" edge="1" parent="1" target="5DLsjGMNeFxkmOBRsVgO-5">
          <mxGeometry relative="1" as="geometry">
            <mxPoint x="492.28999999999996" y="1220" as="targetPoint" />
            <mxPoint x="492.28999999999996" y="1160" as="sourcePoint" />
          </mxGeometry>
        </mxCell>
        <mxCell id="5DLsjGMNeFxkmOBRsVgO-11" value="" style="edgeStyle=orthogonalEdgeStyle;html=1;verticalAlign=bottom;endArrow=open;endSize=8;strokeColor=#ff0000;rounded=0;exitX=0.5;exitY=1;exitDx=0;exitDy=0;" edge="1" source="5DLsjGMNeFxkmOBRsVgO-6" parent="1">
          <mxGeometry relative="1" as="geometry">
            <mxPoint x="493" y="1440" as="targetPoint" />
            <mxPoint x="240" y="1240" as="sourcePoint" />
          </mxGeometry>
        </mxCell>
      </root>
    </mxGraphModel>
  </diagram>
  <diagram id="AADtpObMISFBt4mu7FBe" name="MushroomBody">
    <mxGraphModel dx="1434" dy="780" grid="1" gridSize="10" guides="1" tooltips="1" connect="1" arrows="1" fold="1" page="1" pageScale="1" pageWidth="827" pageHeight="1169" math="0" shadow="0">
      <root>
        <mxCell id="0" />
        <mxCell id="1" parent="0" />
        <mxCell id="f6nV_wHikQOVNRY95yNb-1" value="HasNoSpore" style="rounded=1;whiteSpace=wrap;html=1;arcSize=40;fontColor=#000000;fillColor=#ffffc0;strokeColor=#ff0000;" vertex="1" parent="1">
          <mxGeometry x="20" y="340" width="120" height="40" as="geometry" />
        </mxCell>
        <mxCell id="f6nV_wHikQOVNRY95yNb-3" value="HasSpore" style="rounded=1;whiteSpace=wrap;html=1;arcSize=40;fontColor=#000000;fillColor=#ffffc0;strokeColor=#ff0000;" vertex="1" parent="1">
          <mxGeometry x="460" y="340" width="120" height="40" as="geometry" />
        </mxCell>
        <mxCell id="f6nV_wHikQOVNRY95yNb-6" value="" style="edgeStyle=orthogonalEdgeStyle;html=1;verticalAlign=bottom;endArrow=open;endSize=8;strokeColor=#ff0000;rounded=0;exitX=1;exitY=0.25;exitDx=0;exitDy=0;entryX=0;entryY=0.25;entryDx=0;entryDy=0;" edge="1" source="f6nV_wHikQOVNRY95yNb-1" parent="1" target="f6nV_wHikQOVNRY95yNb-3">
          <mxGeometry relative="1" as="geometry">
            <mxPoint x="370" y="340" as="targetPoint" />
            <mxPoint x="370" y="280" as="sourcePoint" />
          </mxGeometry>
        </mxCell>
        <mxCell id="f6nV_wHikQOVNRY95yNb-8" value="" style="edgeStyle=orthogonalEdgeStyle;html=1;verticalAlign=bottom;endArrow=open;endSize=8;strokeColor=#ff0000;rounded=0;entryX=1;entryY=0.75;entryDx=0;entryDy=0;exitX=0;exitY=0.75;exitDx=0;exitDy=0;" edge="1" source="f6nV_wHikQOVNRY95yNb-3" parent="1" target="f6nV_wHikQOVNRY95yNb-1">
          <mxGeometry relative="1" as="geometry">
            <mxPoint x="430" y="570" as="targetPoint" />
            <mxPoint x="430" y="510" as="sourcePoint" />
          </mxGeometry>
        </mxCell>
        <mxCell id="f6nV_wHikQOVNRY95yNb-9" value="ejectSpores [has ejected less than 3 times]" style="text;html=1;align=center;verticalAlign=middle;resizable=0;points=[];autosize=1;strokeColor=none;fillColor=none;" vertex="1" parent="1">
          <mxGeometry x="164" y="370" width="250" height="30" as="geometry" />
        </mxCell>
        <mxCell id="f6nV_wHikQOVNRY95yNb-10" value="Inactive" style="rounded=1;whiteSpace=wrap;html=1;arcSize=40;fontColor=#000000;fillColor=#ffffc0;strokeColor=#ff0000;" vertex="1" parent="1">
          <mxGeometry x="790" y="340" width="120" height="40" as="geometry" />
        </mxCell>
        <mxCell id="f6nV_wHikQOVNRY95yNb-11" value="" style="edgeStyle=orthogonalEdgeStyle;html=1;verticalAlign=bottom;endArrow=open;endSize=8;strokeColor=#ff0000;rounded=0;exitX=1;exitY=0.5;exitDx=0;exitDy=0;entryX=0;entryY=0.5;entryDx=0;entryDy=0;" edge="1" source="f6nV_wHikQOVNRY95yNb-3" parent="1" target="f6nV_wHikQOVNRY95yNb-10">
          <mxGeometry relative="1" as="geometry">
            <mxPoint x="750" y="440" as="targetPoint" />
          </mxGeometry>
        </mxCell>
        <mxCell id="f6nV_wHikQOVNRY95yNb-12" value="ejectSpores [has ejected 3 times ]" style="text;html=1;align=center;verticalAlign=middle;resizable=0;points=[];autosize=1;strokeColor=none;fillColor=none;" vertex="1" parent="1">
          <mxGeometry x="580" y="330" width="200" height="30" as="geometry" />
        </mxCell>
        <mxCell id="YEFbtdPk1mdvVeJZUSjs-2" value="" style="edgeStyle=orthogonalEdgeStyle;html=1;verticalAlign=bottom;endArrow=open;endSize=8;strokeColor=#ff0000;rounded=0;exitX=0.25;exitY=0;exitDx=0;exitDy=0;entryX=0.75;entryY=0;entryDx=0;entryDy=0;" edge="1" source="f6nV_wHikQOVNRY95yNb-3" parent="1" target="f6nV_wHikQOVNRY95yNb-3">
          <mxGeometry relative="1" as="geometry">
            <mxPoint x="560" y="280" as="targetPoint" />
            <mxPoint x="474" y="220" as="sourcePoint" />
            <Array as="points">
              <mxPoint x="490" y="300" />
              <mxPoint x="550" y="300" />
            </Array>
          </mxGeometry>
        </mxCell>
      </root>
    </mxGraphModel>
  </diagram>
</mxfile>
